<svg xmlns="http://www.w3.org/2000/svg" xmlns:xlink="http://www.w3.org/1999/xlink" xmlns:lucid="lucid" width="1180" height="1320"><g transform="translate(-71.41732283464557 -20)" lucid:page-tab-id="0_0"><path d="M522.83 46c0-3.3 2.7-6 6-6h128c3.32 0 6 2.7 6 6v68c0 3.3-2.68 6-6 6h-128c-3.3 0-6-2.7-6-6z" stroke="#5e5e5e" stroke-width="3" fill="#fff"/><use xlink:href="#a" transform="matrix(1,0,0,1,534.8346456692911,52) translate(33.30864197530865 31.77777777777777)"/><path d="M512.83 166c0-3.3 2.7-6 6-6h148c3.32 0 6 2.7 6 6v68c0 3.3-2.68 6-6 6h-148c-3.3 0-6-2.7-6-6z" stroke="#5e5e5e" stroke-width="3" fill="#fff"/><use xlink:href="#b" transform="matrix(1,0,0,1,524.8346456692911,172) translate(9.450617283950642 17.77777777777777)"/><use xlink:href="#c" transform="matrix(1,0,0,1,524.8346456692911,172) translate(8.123456790123484 44.44444444444443)"/><path d="M291.42 166c0-3.3 2.68-6 6-6h148c3.3 0 6 2.7 6 6v68c0 3.3-2.7 6-6 6h-148c-3.32 0-6-2.7-6-6z" stroke="#5e5e5e" stroke-width="3" fill="#fff"/><use xlink:href="#d" transform="matrix(1,0,0,1,303.4173228346456,172) translate(3.2469135802469395 17.77777777777777)"/><use xlink:href="#e" transform="matrix(1,0,0,1,303.4173228346456,172) translate(66.20987654320987 17.77777777777777)"/><use xlink:href="#f" transform="matrix(1,0,0,1,303.4173228346456,172) translate(87.19753086419752 17.77777777777777)"/><use xlink:href="#g" transform="matrix(1,0,0,1,303.4173228346456,172) translate(1.950617283950649 44.44444444444443)"/><path d="M482.83 286c0-3.3 2.7-6 6-6h208c3.32 0 6 2.7 6 6v68c0 3.3-2.68 6-6 6h-208c-3.3 0-6-2.7-6-6z" stroke="#5e5e5e" stroke-width="3" fill="#fff"/><use xlink:href="#h" transform="matrix(1,0,0,1,494.83464566929115,292) translate(3.092592592592638 17.77777777777777)"/><use xlink:href="#e" transform="matrix(1,0,0,1,494.83464566929115,292) translate(126.36419753086419 17.77777777777777)"/><use xlink:href="#f" transform="matrix(1,0,0,1,494.83464566929115,292) translate(147.35185185185182 17.77777777777777)"/><use xlink:href="#g" transform="matrix(1,0,0,1,494.83464566929115,292) translate(31.95061728395065 44.44444444444443)"/><path d="M737.13 286c0-3.3 2.68-6 6-6h142.3c3.3 0 6 2.7 6 6v68c0 3.3-2.7 6-6 6h-142.3c-3.32 0-6-2.7-6-6z" stroke="#5e5e5e" stroke-width="3" fill="#fff"/><use xlink:href="#i" transform="matrix(1,0,0,1,749.1259842519682,292) translate(22.35185185185187 19.111111111111114)"/><use xlink:href="#j" transform="matrix(1,0,0,1,749.1259842519682,292) translate(-0.549382716049351 45.77777777777777)"/><path d="M592.83 122.5V140" stroke="#5e5e5e" stroke-width="2" fill="none"/><path d="M593.83 122.53h-2v-1.03h2z" fill="#5e5e5e"/><path d="M592.83 155.26L588.2 141h9.27z" stroke="#5e5e5e" stroke-width="2" fill="#5e5e5e"/><path d="M510.33 200h-38.9" stroke="#5e5e5e" stroke-width="2" fill="none"/><path d="M511.33 201h-1.02v-2h1.03z" fill="#5e5e5e"/><path d="M456.15 200l14.27-4.64v9.28z" stroke="#5e5e5e" stroke-width="2" fill="#5e5e5e"/><path d="M371.42 242.5V314c0 3.3 2.68 6 6 6h85.4" stroke="#5e5e5e" stroke-width="2" fill="none"/><path d="M372.42 242.53h-2v-1.03h2z" fill="#5e5e5e"/><path d="M478.1 320l-14.27 4.64v-9.28z" stroke="#5e5e5e" stroke-width="2" fill="#5e5e5e"/><path d="M291.42 406c0-3.3 2.68-6 6-6h148c3.3 0 6 2.7 6 6v68c0 3.3-2.7 6-6 6h-148c-3.32 0-6-2.7-6-6z" stroke="#5e5e5e" stroke-width="3" fill="#fff"/><use xlink:href="#d" transform="matrix(1,0,0,1,303.4173228346456,412) translate(3.2469135802469395 19.111111111111114)"/><use xlink:href="#e" transform="matrix(1,0,0,1,303.4173228346456,412) translate(66.20987654320987 19.111111111111114)"/><use xlink:href="#f" transform="matrix(1,0,0,1,303.4173228346456,412) translate(87.19753086419752 19.111111111111114)"/><use xlink:href="#k" transform="matrix(1,0,0,1,303.4173228346456,412) translate(-4.222222222222186 45.77777777777777)"/><path d="M482.83 526c0-3.3 2.7-6 6-6h208c3.32 0 6 2.7 6 6v68c0 3.3-2.68 6-6 6h-208c-3.3 0-6-2.7-6-6z" stroke="#5e5e5e" stroke-width="3" fill="#fff"/><use xlink:href="#h" transform="matrix(1,0,0,1,494.83464566929115,532) translate(3.092592592592638 17.77777777777777)"/><use xlink:href="#e" transform="matrix(1,0,0,1,494.83464566929115,532) translate(126.36419753086419 17.77777777777777)"/><use xlink:href="#f" transform="matrix(1,0,0,1,494.83464566929115,532) translate(147.35185185185182 17.77777777777777)"/><use xlink:href="#k" transform="matrix(1,0,0,1,494.83464566929115,532) translate(25.777777777777814 44.44444444444443)"/><path d="M371.42 482.5V554c0 3.3 2.68 6 6 6h85.4" stroke="#5e5e5e" stroke-width="2" fill="none"/><path d="M372.42 482.53h-2v-1.03h2z" fill="#5e5e5e"/><path d="M478.1 560l-14.27 4.64v-9.28z" stroke="#5e5e5e" stroke-width="2" fill="#5e5e5e"/><path d="M737.13 526c0-3.3 2.68-6 6-6h142.3c3.3 0 6 2.7 6 6v68c0 3.3-2.7 6-6 6h-142.3c-3.32 0-6-2.7-6-6z" stroke="#5e5e5e" stroke-width="3" fill="#fff"/><use xlink:href="#i" transform="matrix(1,0,0,1,749.1259842519682,532) translate(22.35185185185187 19.111111111111114)"/><use xlink:href="#k" transform="matrix(1,0,0,1,749.1259842519682,532) translate(-6.722222222222186 45.77777777777777)"/><path d="M931.42 526c0-3.3 2.68-6 6-6h148c3.3 0 6 2.7 6 6v68c0 3.3-2.7 6-6 6h-148c-3.32 0-6-2.7-6-6z" stroke="#5e5e5e" stroke-width="3" fill="#fff"/><use xlink:href="#l" transform="matrix(1,0,0,1,943.4173228346456,532) translate(28.55555555555558 17.77777777777777)"/><use xlink:href="#m" transform="matrix(1,0,0,1,943.4173228346456,532) translate(8.123456790123484 44.44444444444443)"/><path d="M512.83 406c0-3.3 2.7-6 6-6h148c3.32 0 6 2.7 6 6v68c0 3.3-2.68 6-6 6h-148c-3.3 0-6-2.7-6-6z" stroke="#5e5e5e" stroke-width="3" fill="#fff"/><use xlink:href="#n" transform="matrix(1,0,0,1,524.8346456692911,412) translate(9.450617283950642 17.77777777777777)"/><use xlink:href="#o" transform="matrix(1,0,0,1,524.8346456692911,412) translate(1.950617283950649 44.44444444444443)"/><path d="M510.33 440h-38.9" stroke="#5e5e5e" stroke-width="2" fill="none"/><path d="M511.33 441h-1.02v-2h1.03z" fill="#5e5e5e"/><path d="M456.15 440l14.27-4.64v9.28z" stroke="#5e5e5e" stroke-width="2" fill="#5e5e5e"/><path d="M512.83 646c0-3.3 2.7-6 6-6h148c3.32 0 6 2.7 6 6v68c0 3.3-2.68 6-6 6h-148c-3.3 0-6-2.7-6-6z" stroke="#5e5e5e" stroke-width="3" fill="#fff"/><use xlink:href="#b" transform="matrix(1,0,0,1,524.8346456692911,652) translate(9.450617283950642 17.77777777777777)"/><use xlink:href="#m" transform="matrix(1,0,0,1,524.8346456692911,652) translate(8.123456790123484 44.44444444444443)"/><path d="M291.42 646c0-3.3 2.68-6 6-6h148c3.3 0 6 2.7 6 6v68c0 3.3-2.7 6-6 6h-148c-3.32 0-6-2.7-6-6z" stroke="#5e5e5e" stroke-width="3" fill="#fff"/><use xlink:href="#d" transform="matrix(1,0,0,1,303.4173228346456,652) translate(3.2469135802469395 17.77777777777777)"/><use xlink:href="#e" transform="matrix(1,0,0,1,303.4173228346456,652) translate(66.20987654320987 17.77777777777777)"/><use xlink:href="#f" transform="matrix(1,0,0,1,303.4173228346456,652) translate(87.19753086419752 17.77777777777777)"/><use xlink:href="#p" transform="matrix(1,0,0,1,303.4173228346456,652) translate(8.123456790123484 44.44444444444443)"/><path d="M482.83 766c0-3.3 2.7-6 6-6h208c3.32 0 6 2.7 6 6v68c0 3.3-2.68 6-6 6h-208c-3.3 0-6-2.7-6-6z" stroke="#5e5e5e" stroke-width="3" fill="#fff"/><use xlink:href="#h" transform="matrix(1,0,0,1,494.83464566929115,772) translate(3.092592592592638 17.77777777777777)"/><use xlink:href="#e" transform="matrix(1,0,0,1,494.83464566929115,772) translate(126.36419753086419 17.77777777777777)"/><use xlink:href="#f" transform="matrix(1,0,0,1,494.83464566929115,772) translate(147.35185185185182 17.77777777777777)"/><use xlink:href="#p" transform="matrix(1,0,0,1,494.83464566929115,772) translate(38.123456790123484 44.44444444444443)"/><path d="M737.13 766c0-3.3 2.68-6 6-6h142.3c3.3 0 6 2.7 6 6v68c0 3.3-2.7 6-6 6h-142.3c-3.32 0-6-2.7-6-6z" stroke="#5e5e5e" stroke-width="3" fill="#fff"/><use xlink:href="#i" transform="matrix(1,0,0,1,749.1259842519682,772) translate(22.35185185185187 17.77777777777777)"/><use xlink:href="#p" transform="matrix(1,0,0,1,749.1259842519682,772) translate(5.623456790123484 44.44444444444443)"/><path d="M931.42 766c0-3.3 2.68-6 6-6h128c3.3 0 6 2.7 6 6v68c0 3.3-2.7 6-6 6h-128c-3.32 0-6-2.7-6-6z" stroke="#5e5e5e" stroke-width="3" fill="#fff"/><use xlink:href="#q" transform="matrix(1,0,0,1,943.4173228346456,772) translate(24.11111111111113 19.111111111111114)"/><use xlink:href="#r" transform="matrix(1,0,0,1,943.4173228346456,772) translate(-1.876543209876516 45.77777777777777)"/><path d="M512.83 886c0-3.3 2.7-6 6-6h148c3.32 0 6 2.7 6 6v68c0 3.3-2.68 6-6 6h-148c-3.3 0-6-2.7-6-6z" stroke="#5e5e5e" stroke-width="3" fill="#fff"/><use xlink:href="#s" transform="matrix(1,0,0,1,524.8346456692911,892) translate(0.8395061728395348 17.77777777777777)"/><use xlink:href="#e" transform="matrix(1,0,0,1,524.8346456692911,892) translate(68.61728395061729 17.77777777777777)"/><use xlink:href="#f" transform="matrix(1,0,0,1,524.8346456692911,892) translate(89.60493827160494 17.77777777777777)"/><use xlink:href="#t" transform="matrix(1,0,0,1,524.8346456692911,892) translate(25.407407407407433 44.44444444444443)"/><path d="M1111.42 766c0-3.3 2.68-6 6-6h108c3.3 0 6 2.7 6 6v68c0 3.3-2.7 6-6 6h-108c-3.32 0-6-2.7-6-6z" stroke="#5e5e5e" stroke-width="3" fill="#fff"/><use xlink:href="#l" transform="matrix(1,0,0,1,1123.4173228346456,772) translate(8.555555555555578 17.77777777777777)"/><use xlink:href="#t" transform="matrix(1,0,0,1,1123.4173228346456,772) translate(5.407407407407433 44.44444444444443)"/><path d="M512.83 1006c0-3.3 2.7-6 6-6h148c3.32 0 6 2.7 6 6v68c0 3.3-2.68 6-6 6h-148c-3.3 0-6-2.7-6-6z" stroke="#5e5e5e" stroke-width="3" fill="#fff"/><use xlink:href="#s" transform="matrix(1,0,0,1,524.8346456692911,1012) translate(0.8395061728395348 17.77777777777777)"/><use xlink:href="#e" transform="matrix(1,0,0,1,524.8346456692911,1012) translate(68.61728395061729 17.77777777777777)"/><use xlink:href="#f" transform="matrix(1,0,0,1,524.8346456692911,1012) translate(89.60493827160494 17.77777777777777)"/><use xlink:href="#u" transform="matrix(1,0,0,1,524.8346456692911,1012) translate(25.407407407407433 44.44444444444443)"/><path d="M592.83 962.5V980" stroke="#5e5e5e" stroke-width="2" fill="none"/><path d="M593.83 962.53h-2v-1.03h2z" fill="#5e5e5e"/><path d="M592.83 995.26L588.2 981h9.27z" stroke="#5e5e5e" stroke-width="2" fill="#5e5e5e"/><path d="M291.42 1006c0-3.3 2.68-6 6-6h148c3.3 0 6 2.7 6 6v68c0 3.3-2.7 6-6 6h-148c-3.32 0-6-2.7-6-6z" stroke="#5e5e5e" stroke-width="3" fill="#fff"/><use xlink:href="#l" transform="matrix(1,0,0,1,303.4173228346456,1012) translate(28.55555555555558 17.77777777777777)"/><use xlink:href="#u" transform="matrix(1,0,0,1,303.4173228346456,1012) translate(25.407407407407433 44.44444444444443)"/><path d="M510.33 1040h-38.9" stroke="#5e5e5e" stroke-width="2" fill="none"/><path d="M511.33 1041h-1.02v-2h1.03z" fill="#5e5e5e"/><path d="M456.15 1040l14.27-4.64v9.28z" stroke="#5e5e5e" stroke-width="2" fill="#5e5e5e"/><path d="M512.83 1126c0-3.3 2.7-6 6-6h148c3.32 0 6 2.7 6 6v68c0 3.3-2.68 6-6 6h-148c-3.3 0-6-2.7-6-6z" stroke="#5e5e5e" stroke-width="3" fill="#fff"/><use xlink:href="#v" transform="matrix(1,0,0,1,524.8346456692911,1132) translate(37.197530864197546 17.77777777777777)"/><use xlink:href="#w" transform="matrix(1,0,0,1,524.8346456692911,1132) translate(31.580246913580268 44.44444444444443)"/><path d="M371.42 1082.5v71.5c0 3.3 2.68 6 6 6h115.4" stroke="#5e5e5e" stroke-width="2" fill="none"/><path d="M372.42 1082.53h-2v-1.03h2z" fill="#5e5e5e"/><path d="M508.1 1160l-14.27 4.64v-9.28z" stroke="#5e5e5e" stroke-width="2" fill="#5e5e5e"/><path d="M522.83 1246c0-3.3 2.7-6 6-6h128c3.32 0 6 2.7 6 6v68c0 3.3-2.68 6-6 6h-128c-3.3 0-6-2.7-6-6z" stroke="#5e5e5e" stroke-width="3" fill="#fff"/><use xlink:href="#x" transform="matrix(1,0,0,1,534.8346456692911,1252) translate(24.666666666666686 17.77777777777777)"/><use xlink:href="#y" transform="matrix(1,0,0,1,534.8346456692911,1252) translate(27.753086419753103 44.44444444444443)"/><path d="M592.83 1202.5v17.5" stroke="#5e5e5e" stroke-width="2" fill="none"/><path d="M593.83 1202.53h-2v-1.03h2z" fill="#5e5e5e"/><path d="M592.83 1235.26L588.2 1221h9.27z" stroke="#5e5e5e" stroke-width="2" fill="#5e5e5e"/><path d="M705.33 320h11.8" stroke="#5e5e5e" stroke-width="2" fill="none"/><path d="M705.36 321h-1.03v-2h1.03z" fill="#5e5e5e"/><path d="M732.4 320l-14.28 4.64v-9.28z" stroke="#5e5e5e" stroke-width="2" fill="#5e5e5e"/><path d="M705.33 560h11.8" stroke="#5e5e5e" stroke-width="2" fill="none"/><path d="M705.36 561h-1.03v-2h1.03z" fill="#5e5e5e"/><path d="M732.4 560l-14.28 4.64v-9.28z" stroke="#5e5e5e" stroke-width="2" fill="#5e5e5e"/><path d="M893.92 560h17.5" stroke="#5e5e5e" stroke-width="2" fill="none"/><path d="M893.94 561h-1.02v-2h1.02z" fill="#5e5e5e"/><path d="M926.68 560l-14.26 4.64v-9.28z" stroke="#5e5e5e" stroke-width="2" fill="#5e5e5e"/><path d="M1011.42 602.5V674c0 3.3-2.7 6-6 6H692.84" stroke="#5e5e5e" stroke-width="2" fill="none"/><path d="M1012.42 602.53h-2v-1.03h2z" fill="#5e5e5e"/><path d="M677.57 680l14.27-4.64v9.28z" stroke="#5e5e5e" stroke-width="2" fill="#5e5e5e"/><path d="M510.33 680h-38.9" stroke="#5e5e5e" stroke-width="2" fill="none"/><path d="M511.33 681h-1.02v-2h1.03z" fill="#5e5e5e"/><path d="M456.15 680l14.27-4.64v9.28z" stroke="#5e5e5e" stroke-width="2" fill="#5e5e5e"/><path d="M371.42 722.5V794c0 3.3 2.68 6 6 6h85.4" stroke="#5e5e5e" stroke-width="2" fill="none"/><path d="M372.42 722.53h-2v-1.03h2z" fill="#5e5e5e"/><path d="M478.1 800l-14.27 4.64v-9.28z" stroke="#5e5e5e" stroke-width="2" fill="#5e5e5e"/><path d="M705.33 800h11.8" stroke="#5e5e5e" stroke-width="2" fill="none"/><path d="M705.36 801h-1.03v-2h1.03z" fill="#5e5e5e"/><path d="M732.4 800l-14.28 4.64v-9.28z" stroke="#5e5e5e" stroke-width="2" fill="#5e5e5e"/><path d="M893.92 800h17.5" stroke="#5e5e5e" stroke-width="2" fill="none"/><path d="M893.94 801h-1.02v-2h1.02z" fill="#5e5e5e"/><path d="M926.68 800l-14.26 4.64v-9.28z" stroke="#5e5e5e" stroke-width="2" fill="#5e5e5e"/><path d="M1171.42 842.5V914c0 3.3-2.7 6-6 6H692.84" stroke="#5e5e5e" stroke-width="2" fill="none"/><path d="M1172.42 842.53h-2v-1.03h2z" fill="#5e5e5e"/><path d="M677.57 920l14.27-4.64v9.28z" stroke="#5e5e5e" stroke-width="2" fill="#5e5e5e"/><path d="M814.27 362.5V434c0 3.3-2.68 6-6 6H692.84" stroke="#5e5e5e" stroke-width="2" fill="none"/><path d="M815.27 362.53h-2v-1.03h2z" fill="#5e5e5e"/><path d="M677.57 440l14.27-4.64v9.28z" stroke="#5e5e5e" stroke-width="2" fill="#5e5e5e"/><path d="M1073.92 800h17.5" stroke="#5e5e5e" stroke-width="2" fill="none"/><path d="M1073.94 801h-1.02v-2h1.02z" fill="#5e5e5e"/><path d="M1106.68 800l-14.26 4.64v-9.28z" stroke="#5e5e5e" stroke-width="2" fill="#5e5e5e"/><path d="M91.42 181c0-3.3 2.68-6 6-6h108c3.3 0 6 2.7 6 6v38c0 3.3-2.7 6-6 6h-108c-3.32 0-6-2.7-6-6z" stroke="#5e5e5e" stroke-width="3" fill="#fff"/><g><use xlink:href="#z" transform="matrix(1,0,0,1,96.41732283464557,180) translate(17.993827160493844 25.27777777777777)"/><use xlink:href="#A" transform="matrix(1,0,0,1,96.41732283464557,180) translate(79.66049382716048 25.27777777777777)"/></g><path d="M91.42 306c0-3.3 2.68-6 6-6h108c3.3 0 6 2.7 6 6v38c0 3.3-2.7 6-6 6h-108c-3.32 0-6-2.7-6-6z" stroke="#5e5e5e" stroke-width="3" fill="#fff"/><g><use xlink:href="#z" transform="matrix(1,0,0,1,96.41732283464557,305) translate(17.993827160493844 25.27777777777777)"/><use xlink:href="#B" transform="matrix(1,0,0,1,96.41732283464557,305) translate(79.66049382716048 25.27777777777777)"/></g><path d="M91.42 431c0-3.3 2.68-6 6-6h108c3.3 0 6 2.7 6 6v38c0 3.3-2.7 6-6 6h-108c-3.32 0-6-2.7-6-6z" stroke="#5e5e5e" stroke-width="3" fill="#fff"/><g><use xlink:href="#z" transform="matrix(1,0,0,1,96.41732283464557,430) translate(17.993827160493844 25.27777777777777)"/><use xlink:href="#C" transform="matrix(1,0,0,1,96.41732283464557,430) translate(79.66049382716048 25.27777777777777)"/></g><path d="M91.42 541c0-3.3 2.68-6 6-6h108c3.3 0 6 2.7 6 6v38c0 3.3-2.7 6-6 6h-108c-3.32 0-6-2.7-6-6z" stroke="#5e5e5e" stroke-width="3" fill="#fff"/><g><use xlink:href="#z" transform="matrix(1,0,0,1,96.41732283464557,540) translate(17.993827160493844 25.27777777777777)"/><use xlink:href="#D" transform="matrix(1,0,0,1,96.41732283464557,540) translate(79.66049382716048 25.27777777777777)"/></g><path d="M91.42 661c0-3.3 2.68-6 6-6h108c3.3 0 6 2.7 6 6v38c0 3.3-2.7 6-6 6h-108c-3.32 0-6-2.7-6-6z" stroke="#5e5e5e" stroke-width="3" fill="#fff"/><g><use xlink:href="#z" transform="matrix(1,0,0,1,96.41732283464557,660) translate(17.993827160493844 25.27777777777777)"/><use xlink:href="#E" transform="matrix(1,0,0,1,96.41732283464557,660) translate(79.66049382716048 25.27777777777777)"/></g><path d="M91.42 781c0-3.3 2.68-6 6-6h108c3.3 0 6 2.7 6 6v38c0 3.3-2.7 6-6 6h-108c-3.32 0-6-2.7-6-6z" stroke="#5e5e5e" stroke-width="3" fill="#fff"/><g><use xlink:href="#z" transform="matrix(1,0,0,1,96.41732283464557,780) translate(17.993827160493844 25.27777777777777)"/><use xlink:href="#F" transform="matrix(1,0,0,1,96.41732283464557,780) translate(79.66049382716048 25.27777777777777)"/></g><path d="M91.42 901c0-3.3 2.68-6 6-6h108c3.3 0 6 2.7 6 6v38c0 3.3-2.7 6-6 6h-108c-3.32 0-6-2.7-6-6z" stroke="#5e5e5e" stroke-width="3" fill="#fff"/><g><use xlink:href="#z" transform="matrix(1,0,0,1,96.41732283464557,900) translate(17.993827160493844 25.27777777777777)"/><use xlink:href="#G" transform="matrix(1,0,0,1,96.41732283464557,900) translate(79.66049382716048 25.27777777777777)"/></g><path d="M91.42 1021c0-3.3 2.68-6 6-6h108c3.3 0 6 2.7 6 6v38c0 3.3-2.7 6-6 6h-108c-3.32 0-6-2.7-6-6z" stroke="#5e5e5e" stroke-width="3" fill="#fff"/><g><use xlink:href="#z" transform="matrix(1,0,0,1,96.41732283464557,1020) translate(17.993827160493844 25.27777777777777)"/><use xlink:href="#H" transform="matrix(1,0,0,1,96.41732283464557,1020) translate(79.66049382716048 25.27777777777777)"/></g><path d="M91.42 1141c0-3.3 2.68-6 6-6h108c3.3 0 6 2.7 6 6v38c0 3.3-2.7 6-6 6h-108c-3.32 0-6-2.7-6-6z" stroke="#5e5e5e" stroke-width="3" fill="#fff"/><g><use xlink:href="#z" transform="matrix(1,0,0,1,96.41732283464557,1140) translate(17.993827160493844 25.27777777777777)"/><use xlink:href="#I" transform="matrix(1,0,0,1,96.41732283464557,1140) translate(79.66049382716048 25.27777777777777)"/></g><defs><path fill="#333" d="M33 0v-248h34V0H33" id="J"/><path fill="#333" d="M117-194c89-4 53 116 60 194h-32v-121c0-31-8-49-39-48C34-167 62-67 57 0H25l-1-190h30c1 10-1 24 2 32 11-22 29-35 61-36" id="K"/><path fill="#333" d="M115-194c55 1 70 41 70 98S169 2 115 4C84 4 66-9 55-30l1 105H24l-1-265h31l2 30c10-21 28-34 59-34zm-8 174c40 0 45-34 45-75s-6-73-45-74c-42 0-51 32-51 76 0 43 10 73 51 73" id="L"/><path fill="#333" d="M84 4C-5 8 30-112 23-190h32v120c0 31 7 50 39 49 72-2 45-101 50-169h31l1 190h-30c-1-10 1-25-2-33-11 22-28 36-60 37" id="M"/><path fill="#333" d="M59-47c-2 24 18 29 38 22v24C64 9 27 4 27-40v-127H5v-23h24l9-43h21v43h35v23H59v120" id="N"/><g id="a"><use transform="matrix(0.06172839506172837,0,0,0.06172839506172837,0,0)" xlink:href="#J"/><use transform="matrix(0.06172839506172837,0,0,0.06172839506172837,6.172839506172837,0)" xlink:href="#K"/><use transform="matrix(0.06172839506172837,0,0,0.06172839506172837,18.518518518518512,0)" xlink:href="#L"/><use transform="matrix(0.06172839506172837,0,0,0.06172839506172837,30.864197530864185,0)" xlink:href="#M"/><use transform="matrix(0.06172839506172837,0,0,0.06172839506172837,43.20987654320986,0)" xlink:href="#N"/></g><path fill="#333" d="M212-179c-10-28-35-45-73-45-59 0-87 40-87 99 0 60 29 101 89 101 43 0 62-24 78-52l27 14C228-24 195 4 139 4 59 4 22-46 18-125c-6-104 99-153 187-111 19 9 31 26 39 46" id="O"/><path fill="#333" d="M100-194c62-1 85 37 85 99 1 63-27 99-86 99S16-35 15-95c0-66 28-99 85-99zM99-20c44 1 53-31 53-75 0-43-8-75-51-75s-53 32-53 75 10 74 51 75" id="P"/><path fill="#333" d="M108 0H70L1-190h34L89-25l56-165h34" id="Q"/><path fill="#333" d="M24 0v-261h32V0H24" id="R"/><path fill="#333" d="M24-231v-30h32v30H24zM24 0v-190h32V0H24" id="S"/><g id="b"><use transform="matrix(0.06172839506172837,0,0,0.06172839506172837,0,0)" xlink:href="#O"/><use transform="matrix(0.06172839506172837,0,0,0.06172839506172837,15.987654320987648,0)" xlink:href="#P"/><use transform="matrix(0.06172839506172837,0,0,0.06172839506172837,28.33333333333332,0)" xlink:href="#K"/><use transform="matrix(0.06172839506172837,0,0,0.06172839506172837,40.679012345679,0)" xlink:href="#Q"/><use transform="matrix(0.06172839506172837,0,0,0.06172839506172837,51.790123456790106,0)" xlink:href="#P"/><use transform="matrix(0.06172839506172837,0,0,0.06172839506172837,64.13580246913578,0)" xlink:href="#R"/><use transform="matrix(0.06172839506172837,0,0,0.06172839506172837,69.01234567901233,0)" xlink:href="#M"/><use transform="matrix(0.06172839506172837,0,0,0.06172839506172837,81.358024691358,0)" xlink:href="#N"/><use transform="matrix(0.06172839506172837,0,0,0.06172839506172837,87.53086419753083,0)" xlink:href="#S"/><use transform="matrix(0.06172839506172837,0,0,0.06172839506172837,92.40740740740738,0)" xlink:href="#P"/><use transform="matrix(0.06172839506172837,0,0,0.06172839506172837,104.75308641975305,0)" xlink:href="#K"/></g><path fill="#333" d="M110-160c48 1 74 30 74 79 0 53-28 85-80 85-65 0-83-55-86-122-5-90 50-162 133-122 14 7 22 21 27 39l-31 6c-5-40-67-38-82-6-9 19-15 44-15 74 11-20 30-34 60-33zm-7 138c34 0 49-23 49-58s-16-56-50-56c-29 0-50 16-49 49 1 36 15 65 50 65" id="T"/><path fill="#333" d="M155-56V0h-30v-56H8v-25l114-167h33v167h35v25h-35zm-30-156c-27 46-58 90-88 131h88v-131" id="U"/><path fill="#333" d="M141 0L90-78 38 0H4l68-98-65-92h35l48 74 47-74h35l-64 92 68 98h-35" id="V"/><path fill="#333" d="M126-127c33 6 58 20 58 59 0 88-139 92-164 29-3-8-5-16-6-25l32-3c6 27 21 44 54 44 32 0 52-15 52-46 0-38-36-46-79-43v-28c39 1 72-4 72-42 0-27-17-43-46-43-28 0-47 15-49 41l-32-3c6-42 35-63 81-64 48-1 79 21 79 65 0 36-21 52-52 59" id="W"/><path fill="#333" d="M101-251c82-7 93 87 43 132L82-64C71-53 59-42 53-27h129V0H18c2-99 128-94 128-182 0-28-16-43-45-43s-46 15-49 41l-32-3c6-41 34-60 81-64" id="X"/><g id="c"><use transform="matrix(0.06172839506172837,0,0,0.06172839506172837,0,0)" xlink:href="#T"/><use transform="matrix(0.06172839506172837,0,0,0.06172839506172837,12.345679012345673,0)" xlink:href="#U"/><use transform="matrix(0.06172839506172837,0,0,0.06172839506172837,24.691358024691347,0)" xlink:href="#V"/><use transform="matrix(0.06172839506172837,0,0,0.06172839506172837,35.802469135802454,0)" xlink:href="#W"/><use transform="matrix(0.06172839506172837,0,0,0.06172839506172837,48.148148148148124,0)" xlink:href="#V"/><use transform="matrix(0.06172839506172837,0,0,0.06172839506172837,59.25925925925923,0)" xlink:href="#W"/><use transform="matrix(0.06172839506172837,0,0,0.06172839506172837,71.60493827160491,0)" xlink:href="#X"/><use transform="matrix(0.06172839506172837,0,0,0.06172839506172837,83.95061728395058,0)" xlink:href="#V"/><use transform="matrix(0.06172839506172837,0,0,0.06172839506172837,95.06172839506169,0)" xlink:href="#W"/><use transform="matrix(0.06172839506172837,0,0,0.06172839506172837,107.40740740740736,0)" xlink:href="#X"/></g><path fill="#333" d="M160-131c35 5 61 23 61 61C221 17 115-2 30 0v-248c76 3 177-17 177 60 0 33-19 50-47 57zm-97-11c50-1 110 9 110-42 0-47-63-36-110-37v79zm0 115c55-2 124 14 124-45 0-56-70-42-124-44v89" id="Y"/><path fill="#333" d="M141-36C126-15 110 5 73 4 37 3 15-17 15-53c-1-64 63-63 125-63 3-35-9-54-41-54-24 1-41 7-42 31l-33-3c5-37 33-52 76-52 45 0 72 20 72 64v82c-1 20 7 32 28 27v20c-31 9-61-2-59-35zM48-53c0 20 12 33 32 33 41-3 63-29 60-74-43 2-92-5-92 41" id="Z"/><path fill="#333" d="M96-169c-40 0-48 33-48 73s9 75 48 75c24 0 41-14 43-38l32 2c-6 37-31 61-74 61-59 0-76-41-82-99-10-93 101-131 147-64 4 7 5 14 7 22l-32 3c-4-21-16-35-41-35" id="aa"/><path fill="#333" d="M106-169C34-169 62-67 57 0H25v-261h32l-1 103c12-21 28-36 61-36 89 0 53 116 60 194h-32v-121c2-32-8-49-39-48" id="ab"/><g id="d"><use transform="matrix(0.06172839506172837,0,0,0.06172839506172837,0,0)" xlink:href="#Y"/><use transform="matrix(0.06172839506172837,0,0,0.06172839506172837,14.81481481481481,0)" xlink:href="#Z"/><use transform="matrix(0.06172839506172837,0,0,0.06172839506172837,27.160493827160483,0)" xlink:href="#N"/><use transform="matrix(0.06172839506172837,0,0,0.06172839506172837,33.33333333333332,0)" xlink:href="#aa"/><use transform="matrix(0.06172839506172837,0,0,0.06172839506172837,44.44444444444443,0)" xlink:href="#ab"/></g><path fill="#333" d="M234-2c-28 10-62 0-77-18C117 19 8 12 13-65c3-43 29-61 60-76-25-40-17-114 47-108 35 3 59 15 59 50 0 44-40 53-71 69 14 26 32 50 51 72 14-21 24-43 30-72l26 8c-9 33-21 57-38 82 13 13 33 22 57 15v23zM97-151c25-10 52-18 56-48-1-18-13-29-33-29-42 0-39 50-23 77zM42-66c-3 51 71 58 98 28-20-24-41-51-56-80-23 10-40 24-42 52" id="ac"/><use transform="matrix(0.06172839506172837,0,0,0.06172839506172837,0,0)" xlink:href="#ac" id="e"/><path fill="#333" d="M233-177c-1 41-23 64-60 70L243 0h-38l-65-103H63V0H30v-248c88 3 205-21 203 71zM63-129c60-2 137 13 137-47 0-61-80-42-137-45v92" id="ad"/><path fill="#333" d="M100-194c63 0 86 42 84 106H49c0 40 14 67 53 68 26 1 43-12 49-29l28 8c-11 28-37 45-77 45C44 4 14-33 15-96c1-61 26-98 85-98zm52 81c6-60-76-77-97-28-3 7-6 17-6 28h103" id="ae"/><g id="f"><use transform="matrix(0.06172839506172837,0,0,0.06172839506172837,0,0)" xlink:href="#ad"/><use transform="matrix(0.06172839506172837,0,0,0.06172839506172837,15.987654320987648,0)" xlink:href="#ae"/><use transform="matrix(0.06172839506172837,0,0,0.06172839506172837,28.33333333333332,0)" xlink:href="#R"/><use transform="matrix(0.06172839506172837,0,0,0.06172839506172837,33.20987654320986,0)" xlink:href="#M"/></g><g id="g"><use transform="matrix(0.06172839506172837,0,0,0.06172839506172837,0,0)" xlink:href="#T"/><use transform="matrix(0.06172839506172837,0,0,0.06172839506172837,12.345679012345673,0)" xlink:href="#U"/><use transform="matrix(0.06172839506172837,0,0,0.06172839506172837,24.691358024691347,0)" xlink:href="#V"/><use transform="matrix(0.06172839506172837,0,0,0.06172839506172837,35.802469135802454,0)" xlink:href="#W"/><use transform="matrix(0.06172839506172837,0,0,0.06172839506172837,48.148148148148124,0)" xlink:href="#X"/><use transform="matrix(0.06172839506172837,0,0,0.06172839506172837,60.493827160493794,0)" xlink:href="#V"/><use transform="matrix(0.06172839506172837,0,0,0.06172839506172837,71.60493827160491,0)" xlink:href="#W"/><use transform="matrix(0.06172839506172837,0,0,0.06172839506172837,83.95061728395058,0)" xlink:href="#X"/><use transform="matrix(0.06172839506172837,0,0,0.06172839506172837,96.29629629629625,0)" xlink:href="#V"/><use transform="matrix(0.06172839506172837,0,0,0.06172839506172837,107.40740740740736,0)" xlink:href="#W"/><use transform="matrix(0.06172839506172837,0,0,0.06172839506172837,119.75308641975303,0)" xlink:href="#X"/></g><g id="h"><use transform="matrix(0.06172839506172837,0,0,0.06172839506172837,0,0)" xlink:href="#O"/><use transform="matrix(0.06172839506172837,0,0,0.06172839506172837,15.987654320987648,0)" xlink:href="#P"/><use transform="matrix(0.06172839506172837,0,0,0.06172839506172837,28.33333333333332,0)" xlink:href="#K"/><use transform="matrix(0.06172839506172837,0,0,0.06172839506172837,40.679012345679,0)" xlink:href="#Q"/><use transform="matrix(0.06172839506172837,0,0,0.06172839506172837,51.790123456790106,0)" xlink:href="#P"/><use transform="matrix(0.06172839506172837,0,0,0.06172839506172837,64.13580246913578,0)" xlink:href="#R"/><use transform="matrix(0.06172839506172837,0,0,0.06172839506172837,69.01234567901233,0)" xlink:href="#M"/><use transform="matrix(0.06172839506172837,0,0,0.06172839506172837,81.358024691358,0)" xlink:href="#N"/><use transform="matrix(0.06172839506172837,0,0,0.06172839506172837,87.53086419753083,0)" xlink:href="#S"/><use transform="matrix(0.06172839506172837,0,0,0.06172839506172837,92.40740740740738,0)" xlink:href="#P"/><use transform="matrix(0.06172839506172837,0,0,0.06172839506172837,104.75308641975305,0)" xlink:href="#K"/></g><path fill="#333" d="M240 0l2-218c-23 76-54 145-80 218h-23L58-218 59 0H30v-248h44l77 211c21-75 51-140 76-211h43V0h-30" id="af"/><path fill="#333" d="M30-248c87 1 191-15 191 75 0 78-77 80-158 76V0H30v-248zm33 125c57 0 124 11 124-50 0-59-68-47-124-48v98" id="ag"/><g id="i"><use transform="matrix(0.06172839506172837,0,0,0.06172839506172837,0,0)" xlink:href="#af"/><use transform="matrix(0.06172839506172837,0,0,0.06172839506172837,18.456790123456784,0)" xlink:href="#Z"/><use transform="matrix(0.06172839506172837,0,0,0.06172839506172837,30.802469135802458,0)" xlink:href="#V"/><use transform="matrix(0.06172839506172837,0,0,0.06172839506172837,41.91358024691357,0)" xlink:href="#ag"/><use transform="matrix(0.06172839506172837,0,0,0.06172839506172837,56.72839506172838,0)" xlink:href="#P"/><use transform="matrix(0.06172839506172837,0,0,0.06172839506172837,69.07407407407405,0)" xlink:href="#P"/><use transform="matrix(0.06172839506172837,0,0,0.06172839506172837,81.41975308641972,0)" xlink:href="#R"/></g><g id="j"><use transform="matrix(0.06172839506172837,0,0,0.06172839506172837,0,0)" xlink:href="#T"/><use transform="matrix(0.06172839506172837,0,0,0.06172839506172837,12.345679012345673,0)" xlink:href="#U"/><use transform="matrix(0.06172839506172837,0,0,0.06172839506172837,24.691358024691347,0)" xlink:href="#V"/><use transform="matrix(0.06172839506172837,0,0,0.06172839506172837,35.802469135802454,0)" xlink:href="#T"/><use transform="matrix(0.06172839506172837,0,0,0.06172839506172837,48.148148148148124,0)" xlink:href="#U"/><use transform="matrix(0.06172839506172837,0,0,0.06172839506172837,60.493827160493794,0)" xlink:href="#V"/><use transform="matrix(0.06172839506172837,0,0,0.06172839506172837,71.60493827160491,0)" xlink:href="#W"/><use transform="matrix(0.06172839506172837,0,0,0.06172839506172837,83.95061728395058,0)" xlink:href="#X"/><use transform="matrix(0.06172839506172837,0,0,0.06172839506172837,96.29629629629625,0)" xlink:href="#V"/><use transform="matrix(0.06172839506172837,0,0,0.06172839506172837,107.40740740740736,0)" xlink:href="#W"/><use transform="matrix(0.06172839506172837,0,0,0.06172839506172837,119.75308641975303,0)" xlink:href="#X"/></g><path fill="#333" d="M27 0v-27h64v-190l-56 39v-29l58-41h29v221h61V0H27" id="ah"/><path fill="#333" d="M134-131c28 9 52 24 51 62-1 50-34 73-85 73S17-19 16-69c0-36 21-54 49-61-75-25-45-126 34-121 46 3 78 18 79 63 0 33-17 51-44 57zm-34-11c31 1 46-15 46-44 0-28-17-43-47-42-29 0-46 13-45 42 1 28 16 44 46 44zm1 122c35 0 51-18 51-52 0-30-18-46-53-46-33 0-51 17-51 47 0 34 19 51 53 51" id="ai"/><g id="k"><use transform="matrix(0.06172839506172837,0,0,0.06172839506172837,0,0)" xlink:href="#T"/><use transform="matrix(0.06172839506172837,0,0,0.06172839506172837,12.345679012345673,0)" xlink:href="#U"/><use transform="matrix(0.06172839506172837,0,0,0.06172839506172837,24.691358024691347,0)" xlink:href="#V"/><use transform="matrix(0.06172839506172837,0,0,0.06172839506172837,35.802469135802454,0)" xlink:href="#ah"/><use transform="matrix(0.06172839506172837,0,0,0.06172839506172837,48.148148148148124,0)" xlink:href="#X"/><use transform="matrix(0.06172839506172837,0,0,0.06172839506172837,60.493827160493794,0)" xlink:href="#ai"/><use transform="matrix(0.06172839506172837,0,0,0.06172839506172837,72.83950617283946,0)" xlink:href="#V"/><use transform="matrix(0.06172839506172837,0,0,0.06172839506172837,83.95061728395058,0)" xlink:href="#ah"/><use transform="matrix(0.06172839506172837,0,0,0.06172839506172837,96.29629629629625,0)" xlink:href="#T"/><use transform="matrix(0.06172839506172837,0,0,0.06172839506172837,108.64197530864192,0)" xlink:href="#V"/><use transform="matrix(0.06172839506172837,0,0,0.06172839506172837,119.75308641975303,0)" xlink:href="#ah"/><use transform="matrix(0.06172839506172837,0,0,0.06172839506172837,132.0987654320987,0)" xlink:href="#T"/></g><path fill="#333" d="M30-248c118-7 216 8 213 122C240-48 200 0 122 0H30v-248zM63-27c89 8 146-16 146-99s-60-101-146-95v194" id="aj"/><path fill="#333" d="M114-163C36-179 61-72 57 0H25l-1-190h30c1 12-1 29 2 39 6-27 23-49 58-41v29" id="ak"/><g id="l"><use transform="matrix(0.06172839506172837,0,0,0.06172839506172837,0,0)" xlink:href="#aj"/><use transform="matrix(0.06172839506172837,0,0,0.06172839506172837,15.987654320987648,0)" xlink:href="#ak"/><use transform="matrix(0.06172839506172837,0,0,0.06172839506172837,23.333333333333325,0)" xlink:href="#P"/><use transform="matrix(0.06172839506172837,0,0,0.06172839506172837,35.679012345679,0)" xlink:href="#L"/><use transform="matrix(0.06172839506172837,0,0,0.06172839506172837,48.02469135802467,0)" xlink:href="#P"/><use transform="matrix(0.06172839506172837,0,0,0.06172839506172837,60.37037037037034,0)" xlink:href="#M"/><use transform="matrix(0.06172839506172837,0,0,0.06172839506172837,72.71604938271601,0)" xlink:href="#N"/></g><g id="m"><use transform="matrix(0.06172839506172837,0,0,0.06172839506172837,0,0)" xlink:href="#T"/><use transform="matrix(0.06172839506172837,0,0,0.06172839506172837,12.345679012345673,0)" xlink:href="#U"/><use transform="matrix(0.06172839506172837,0,0,0.06172839506172837,24.691358024691347,0)" xlink:href="#V"/><use transform="matrix(0.06172839506172837,0,0,0.06172839506172837,35.802469135802454,0)" xlink:href="#ah"/><use transform="matrix(0.06172839506172837,0,0,0.06172839506172837,48.148148148148124,0)" xlink:href="#X"/><use transform="matrix(0.06172839506172837,0,0,0.06172839506172837,60.493827160493794,0)" xlink:href="#ai"/><use transform="matrix(0.06172839506172837,0,0,0.06172839506172837,72.83950617283946,0)" xlink:href="#V"/><use transform="matrix(0.06172839506172837,0,0,0.06172839506172837,83.95061728395058,0)" xlink:href="#ai"/><use transform="matrix(0.06172839506172837,0,0,0.06172839506172837,96.29629629629625,0)" xlink:href="#V"/><use transform="matrix(0.06172839506172837,0,0,0.06172839506172837,107.40740740740736,0)" xlink:href="#ai"/></g><g id="n"><use transform="matrix(0.06172839506172837,0,0,0.06172839506172837,0,0)" xlink:href="#O"/><use transform="matrix(0.06172839506172837,0,0,0.06172839506172837,15.987654320987648,0)" xlink:href="#P"/><use transform="matrix(0.06172839506172837,0,0,0.06172839506172837,28.33333333333332,0)" xlink:href="#K"/><use transform="matrix(0.06172839506172837,0,0,0.06172839506172837,40.679012345679,0)" xlink:href="#Q"/><use transform="matrix(0.06172839506172837,0,0,0.06172839506172837,51.790123456790106,0)" xlink:href="#P"/><use transform="matrix(0.06172839506172837,0,0,0.06172839506172837,64.13580246913578,0)" xlink:href="#R"/><use transform="matrix(0.06172839506172837,0,0,0.06172839506172837,69.01234567901233,0)" xlink:href="#M"/><use transform="matrix(0.06172839506172837,0,0,0.06172839506172837,81.358024691358,0)" xlink:href="#N"/><use transform="matrix(0.06172839506172837,0,0,0.06172839506172837,87.53086419753083,0)" xlink:href="#S"/><use transform="matrix(0.06172839506172837,0,0,0.06172839506172837,92.40740740740738,0)" xlink:href="#P"/><use transform="matrix(0.06172839506172837,0,0,0.06172839506172837,104.75308641975305,0)" xlink:href="#K"/></g><g id="o"><use transform="matrix(0.06172839506172837,0,0,0.06172839506172837,0,0)" xlink:href="#T"/><use transform="matrix(0.06172839506172837,0,0,0.06172839506172837,12.345679012345673,0)" xlink:href="#U"/><use transform="matrix(0.06172839506172837,0,0,0.06172839506172837,24.691358024691347,0)" xlink:href="#V"/><use transform="matrix(0.06172839506172837,0,0,0.06172839506172837,35.802469135802454,0)" xlink:href="#T"/><use transform="matrix(0.06172839506172837,0,0,0.06172839506172837,48.148148148148124,0)" xlink:href="#U"/><use transform="matrix(0.06172839506172837,0,0,0.06172839506172837,60.493827160493794,0)" xlink:href="#V"/><use transform="matrix(0.06172839506172837,0,0,0.06172839506172837,71.60493827160491,0)" xlink:href="#ah"/><use transform="matrix(0.06172839506172837,0,0,0.06172839506172837,83.95061728395058,0)" xlink:href="#T"/><use transform="matrix(0.06172839506172837,0,0,0.06172839506172837,96.29629629629625,0)" xlink:href="#V"/><use transform="matrix(0.06172839506172837,0,0,0.06172839506172837,107.40740740740736,0)" xlink:href="#ah"/><use transform="matrix(0.06172839506172837,0,0,0.06172839506172837,119.75308641975303,0)" xlink:href="#T"/></g><path fill="#333" d="M54-142c48-35 137-8 131 61C196 18 31 33 14-55l32-4c7 23 22 37 52 37 35-1 51-22 54-58 4-55-73-65-99-34H22l8-134h141v27H59" id="al"/><g id="p"><use transform="matrix(0.06172839506172837,0,0,0.06172839506172837,0,0)" xlink:href="#T"/><use transform="matrix(0.06172839506172837,0,0,0.06172839506172837,12.345679012345673,0)" xlink:href="#U"/><use transform="matrix(0.06172839506172837,0,0,0.06172839506172837,24.691358024691347,0)" xlink:href="#V"/><use transform="matrix(0.06172839506172837,0,0,0.06172839506172837,35.802469135802454,0)" xlink:href="#X"/><use transform="matrix(0.06172839506172837,0,0,0.06172839506172837,48.148148148148124,0)" xlink:href="#al"/><use transform="matrix(0.06172839506172837,0,0,0.06172839506172837,60.493827160493794,0)" xlink:href="#T"/><use transform="matrix(0.06172839506172837,0,0,0.06172839506172837,72.83950617283946,0)" xlink:href="#V"/><use transform="matrix(0.06172839506172837,0,0,0.06172839506172837,83.95061728395058,0)" xlink:href="#ai"/><use transform="matrix(0.06172839506172837,0,0,0.06172839506172837,96.29629629629625,0)" xlink:href="#V"/><use transform="matrix(0.06172839506172837,0,0,0.06172839506172837,107.40740740740736,0)" xlink:href="#ai"/></g><path fill="#333" d="M63-220v92h138v28H63V0H30v-248h175v28H63" id="am"/><g id="q"><use transform="matrix(0.06172839506172837,0,0,0.06172839506172837,0,0)" xlink:href="#am"/><use transform="matrix(0.06172839506172837,0,0,0.06172839506172837,13.518518518518514,0)" xlink:href="#R"/><use transform="matrix(0.06172839506172837,0,0,0.06172839506172837,18.395061728395056,0)" xlink:href="#Z"/><use transform="matrix(0.06172839506172837,0,0,0.06172839506172837,30.74074074074073,0)" xlink:href="#N"/><use transform="matrix(0.06172839506172837,0,0,0.06172839506172837,36.91358024691357,0)" xlink:href="#N"/><use transform="matrix(0.06172839506172837,0,0,0.06172839506172837,43.0864197530864,0)" xlink:href="#ae"/><use transform="matrix(0.06172839506172837,0,0,0.06172839506172837,55.43209876543207,0)" xlink:href="#K"/></g><g id="r"><use transform="matrix(0.06172839506172837,0,0,0.06172839506172837,0,0)" xlink:href="#T"/><use transform="matrix(0.06172839506172837,0,0,0.06172839506172837,12.345679012345673,0)" xlink:href="#U"/><use transform="matrix(0.06172839506172837,0,0,0.06172839506172837,24.691358024691347,0)" xlink:href="#V"/><use transform="matrix(0.06172839506172837,0,0,0.06172839506172837,35.802469135802454,0)" xlink:href="#X"/><use transform="matrix(0.06172839506172837,0,0,0.06172839506172837,48.148148148148124,0)" xlink:href="#al"/><use transform="matrix(0.06172839506172837,0,0,0.06172839506172837,60.493827160493794,0)" xlink:href="#T"/><use transform="matrix(0.06172839506172837,0,0,0.06172839506172837,72.83950617283946,0)" xlink:href="#V"/><use transform="matrix(0.06172839506172837,0,0,0.06172839506172837,83.95061728395058,0)" xlink:href="#U"/><use transform="matrix(0.06172839506172837,0,0,0.06172839506172837,96.29629629629625,0)" xlink:href="#V"/><use transform="matrix(0.06172839506172837,0,0,0.06172839506172837,107.40740740740736,0)" xlink:href="#U"/></g><path fill="#333" d="M30 0v-248h33v221h125V0H30" id="an"/><g id="s"><use transform="matrix(0.06172839506172837,0,0,0.06172839506172837,0,0)" xlink:href="#an"/><use transform="matrix(0.06172839506172837,0,0,0.06172839506172837,12.345679012345673,0)" xlink:href="#S"/><use transform="matrix(0.06172839506172837,0,0,0.06172839506172837,17.222222222222214,0)" xlink:href="#K"/><use transform="matrix(0.06172839506172837,0,0,0.06172839506172837,29.567901234567888,0)" xlink:href="#ae"/><use transform="matrix(0.06172839506172837,0,0,0.06172839506172837,41.91358024691356,0)" xlink:href="#Z"/><use transform="matrix(0.06172839506172837,0,0,0.06172839506172837,54.25925925925924,0)" xlink:href="#ak"/></g><path fill="#333" d="M101-251c68 0 85 55 85 127S166 4 100 4C33 4 14-52 14-124c0-73 17-127 87-127zm-1 229c47 0 54-49 54-102s-4-102-53-102c-51 0-55 48-55 102 0 53 5 102 54 102" id="ao"/><path fill="#333" d="M99-251c64 0 84 50 84 122C183-37 130 33 47-8c-14-7-20-23-25-40l30-5c6 39 69 39 84 7 9-19 16-44 16-74-10 22-31 35-62 35-49 0-73-33-73-83 0-54 28-83 82-83zm-1 141c31-1 51-18 51-49 0-36-14-67-51-67-34 0-49 23-49 58 0 34 15 58 49 58" id="ap"/><g id="t"><use transform="matrix(0.06172839506172837,0,0,0.06172839506172837,0,0)" xlink:href="#T"/><use transform="matrix(0.06172839506172837,0,0,0.06172839506172837,12.345679012345673,0)" xlink:href="#U"/><use transform="matrix(0.06172839506172837,0,0,0.06172839506172837,24.691358024691347,0)" xlink:href="#V"/><use transform="matrix(0.06172839506172837,0,0,0.06172839506172837,35.802469135802454,0)" xlink:href="#U"/><use transform="matrix(0.06172839506172837,0,0,0.06172839506172837,48.148148148148124,0)" xlink:href="#ao"/><use transform="matrix(0.06172839506172837,0,0,0.06172839506172837,60.493827160493794,0)" xlink:href="#ap"/><use transform="matrix(0.06172839506172837,0,0,0.06172839506172837,72.83950617283946,0)" xlink:href="#T"/></g><g id="u"><use transform="matrix(0.06172839506172837,0,0,0.06172839506172837,0,0)" xlink:href="#T"/><use transform="matrix(0.06172839506172837,0,0,0.06172839506172837,12.345679012345673,0)" xlink:href="#U"/><use transform="matrix(0.06172839506172837,0,0,0.06172839506172837,24.691358024691347,0)" xlink:href="#V"/><use transform="matrix(0.06172839506172837,0,0,0.06172839506172837,35.802469135802454,0)" xlink:href="#ah"/><use transform="matrix(0.06172839506172837,0,0,0.06172839506172837,48.148148148148124,0)" xlink:href="#ao"/><use transform="matrix(0.06172839506172837,0,0,0.06172839506172837,60.493827160493794,0)" xlink:href="#X"/><use transform="matrix(0.06172839506172837,0,0,0.06172839506172837,72.83950617283946,0)" xlink:href="#U"/></g><g id="v"><use transform="matrix(0.06172839506172837,0,0,0.06172839506172837,0,0)" xlink:href="#an"/><use transform="matrix(0.06172839506172837,0,0,0.06172839506172837,12.345679012345673,0)" xlink:href="#S"/><use transform="matrix(0.06172839506172837,0,0,0.06172839506172837,17.222222222222214,0)" xlink:href="#K"/><use transform="matrix(0.06172839506172837,0,0,0.06172839506172837,29.567901234567888,0)" xlink:href="#ae"/><use transform="matrix(0.06172839506172837,0,0,0.06172839506172837,41.91358024691356,0)" xlink:href="#Z"/><use transform="matrix(0.06172839506172837,0,0,0.06172839506172837,54.25925925925924,0)" xlink:href="#ak"/></g><g id="w"><use transform="matrix(0.06172839506172837,0,0,0.06172839506172837,0,0)" xlink:href="#T"/><use transform="matrix(0.06172839506172837,0,0,0.06172839506172837,12.345679012345673,0)" xlink:href="#U"/><use transform="matrix(0.06172839506172837,0,0,0.06172839506172837,24.691358024691347,0)" xlink:href="#V"/><use transform="matrix(0.06172839506172837,0,0,0.06172839506172837,35.802469135802454,0)" xlink:href="#al"/><use transform="matrix(0.06172839506172837,0,0,0.06172839506172837,48.148148148148124,0)" xlink:href="#ah"/><use transform="matrix(0.06172839506172837,0,0,0.06172839506172837,60.493827160493794,0)" xlink:href="#X"/></g><path fill="#333" d="M140-251c81 0 123 46 123 126C263-46 219 4 140 4 59 4 17-45 17-125s42-126 123-126zm0 227c63 0 89-41 89-101s-29-99-89-99c-61 0-89 39-89 99S79-25 140-24" id="aq"/><g id="x"><use transform="matrix(0.06172839506172837,0,0,0.06172839506172837,0,0)" xlink:href="#aq"/><use transform="matrix(0.06172839506172837,0,0,0.06172839506172837,17.283950617283942,0)" xlink:href="#M"/><use transform="matrix(0.06172839506172837,0,0,0.06172839506172837,29.629629629629616,0)" xlink:href="#N"/><use transform="matrix(0.06172839506172837,0,0,0.06172839506172837,35.802469135802454,0)" xlink:href="#L"/><use transform="matrix(0.06172839506172837,0,0,0.06172839506172837,48.148148148148124,0)" xlink:href="#M"/><use transform="matrix(0.06172839506172837,0,0,0.06172839506172837,60.493827160493794,0)" xlink:href="#N"/></g><g id="y"><use transform="matrix(0.06172839506172837,0,0,0.06172839506172837,0,0)" xlink:href="#T"/><use transform="matrix(0.06172839506172837,0,0,0.06172839506172837,12.345679012345673,0)" xlink:href="#U"/><use transform="matrix(0.06172839506172837,0,0,0.06172839506172837,24.691358024691347,0)" xlink:href="#V"/><use transform="matrix(0.06172839506172837,0,0,0.06172839506172837,35.802469135802454,0)" xlink:href="#ah"/><use transform="matrix(0.06172839506172837,0,0,0.06172839506172837,48.148148148148124,0)" xlink:href="#ao"/></g><path fill="#333" d="M179-190L93 31C79 59 56 82 12 73V49c39 6 53-20 64-50L1-190h34L92-34l54-156h33" id="ar"/><g id="z"><use transform="matrix(0.06172839506172837,0,0,0.06172839506172837,0,0)" xlink:href="#an"/><use transform="matrix(0.06172839506172837,0,0,0.06172839506172837,12.345679012345673,0)" xlink:href="#Z"/><use transform="matrix(0.06172839506172837,0,0,0.06172839506172837,24.691358024691347,0)" xlink:href="#ar"/><use transform="matrix(0.06172839506172837,0,0,0.06172839506172837,35.802469135802454,0)" xlink:href="#ae"/><use transform="matrix(0.06172839506172837,0,0,0.06172839506172837,48.148148148148124,0)" xlink:href="#ak"/></g><use transform="matrix(0.06172839506172837,0,0,0.06172839506172837,0,0)" xlink:href="#ah" id="A"/><use transform="matrix(0.06172839506172837,0,0,0.06172839506172837,0,0)" xlink:href="#X" id="B"/><use transform="matrix(0.06172839506172837,0,0,0.06172839506172837,0,0)" xlink:href="#W" id="C"/><use transform="matrix(0.06172839506172837,0,0,0.06172839506172837,0,0)" xlink:href="#U" id="D"/><use transform="matrix(0.06172839506172837,0,0,0.06172839506172837,0,0)" xlink:href="#al" id="E"/><use transform="matrix(0.06172839506172837,0,0,0.06172839506172837,0,0)" xlink:href="#T" id="F"/><path fill="#333" d="M64 0c3-98 48-159 88-221H18v-27h164v26C143-157 98-101 97 0H64" id="as"/><use transform="matrix(0.06172839506172837,0,0,0.06172839506172837,0,0)" xlink:href="#as" id="G"/><use transform="matrix(0.06172839506172837,0,0,0.06172839506172837,0,0)" xlink:href="#ai" id="H"/><use transform="matrix(0.06172839506172837,0,0,0.06172839506172837,0,0)" xlink:href="#ap" id="I"/></defs></g></svg>